:SAMPLES-PER-SECOND 30
:FULLY-SPECIFIED
:DEGREES
47
root  9.36408 36.7666 -1.38085 178.347 -36.2605 157.447
RightUpLeg  -22.4181 27.5344 -32.5332
RightLeg  36.9105 17.3222 13.293
RightFoot  -13.8639 0.292226 17.4483
RightToes  0.00048216 0.542163 -0.142577
Spine  24.4842 -7.62597 8.7989
Spine1  10.0973 -11.7566 18.1356
HEad  5.34971 18.2059 3.96025
LeftShoulder1  10.1669 -14.396 -49.5916
LeftArm  -15.2516 22.4331 -25.6641
LeftForeArm  37.8313 -50.7324 -10.7826
LeftHand  -0.25398 0.0180481 5.50724
RightShoulder  5.53915 8.77235 39.0323
RightArm  8.75276 30.6146 31.4927
RightForeArm  15.1721 37.0028 7.53542
RightHand  -2.19466 8.1637 -19.052
LeftUpLeg  11.621 46.6708 -4.44878
LeftLeg  36.8165 19.0503 15.0665
LeftFoot  -24.781 -0.340724 -4.15352
LeftToes  1.06241e-005 4.65855e-005 -8.18508e-006
48
root  9.63566 36.9103 -1.389 178.442 -36.366 158.26
RightUpLeg  -22.3056 26.0366 -31.7869
RightLeg  35.3286 18.0591 13.0875
RightFoot  -13.3668 0.242109 18.7296
RightToes  0.00048216 0.542163 -0.142577
Spine  24.7837 -7.50684 8.54964
Spine1  11.0354 -11.3808 16.6738
HEad  6.42346 18.6655 3.83424
LeftShoulder1  10.0786 -14.3061 -49.4095
LeftArm  -16.0339 21.0924 -25.8813
LeftForeArm  41.2644 -53.4204 -11.7516
LeftHand  -0.25398 0.0180481 5.50724
RightShoulder  5.45804 8.67851 38.7277
RightArm  4.65497 28.9268 30.0882
RightForeArm  11.4388 33.3932 6.76404
RightHand  -2.59602 8.82293 -21.414
LeftUpLeg  10.8506 46.8696 -3.842
LeftLeg  36.2785 18.5805 14.4698
LeftFoot  -24.3344 -0.313453 -4.03415
LeftToes  1.06241e-005 4.65855e-005 -8.18508e-006
49
root  9.95773 37.1112 -1.4284 178.651 -37.6457 159.139
RightUpLeg  -21.46 24.5105 -30.5676
RightLeg  33.3835 18.2015 12.3008
RightFoot  -12.1381 0.0514453 19.0654
RightToes  0.00048216 0.542163 -0.142577
Spine  24.8041 -7.4394 8.16943
Spine1  11.5835 -11.1415 15.5192
HEad  7.61591 18.9001 3.6454
LeftShoulder1  9.99282 -14.2212 -49.2231
LeftArm  -15.1658 19.1998 -26.068
LeftForeArm  46.9948 -55.4913 -12.3465
LeftHand  -0.25398 0.0180481 5.50724
RightShoulder  5.30965 8.46682 38.2985
RightArm  1.07866 26.4144 28.6945
RightForeArm  6.64783 29.9678 6.16621
RightHand  -2.9134 9.53665 -22.8171
LeftUpLeg  9.99029 46.2032 -3.1889
LeftLeg  35.4791 17.9193 13.629
LeftFoot  -23.6177 -0.263978 -3.77016
LeftToes  1.06241e-005 4.65855e-005 -8.18508e-006
50
root  10.3122 37.3487 -1.49775 179.107 -39.7851 160.041
RightUpLeg  -20.34 22.9374 -29.1631
RightLeg  31.2605 17.7166 11.0827
RightFoot  -10.4738 -0.213922 18.6631
RightToes  0.00048216 0.542163 -0.142577
Spine  24.4662 -7.4179 7.71086
Spine1  11.9143 -11.0296 14.5976
HEad  8.53039 19.3067 3.25803
LeftShoulder1  9.908 -14.1199 -49.0855
LeftArm  -13.7141 17.2191 -26.2224
LeftForeArm  53.247 -57.1526 -12.753
LeftHand  -0.25398 0.0180481 5.50724
RightShoulder  5.13768 8.24971 37.6787
RightArm  -1.0015 23.3477 27.5011
RightForeArm  0.965912 26.581 5.64595
RightHand  -3.27224 10.7058 -23.7289
LeftUpLeg  8.74049 44.8355 -2.79777
LeftLeg  34.4984 17.1575 12.6682
LeftFoot  -22.7205 -0.197376 -3.34817
LeftToes  1.06241e-005 4.65855e-005 -8.18508e-006
51
root  10.6759 37.5981 -1.62353 179.912 -42.3194 160.805
RightUpLeg  -19.3337 21.5805 -27.8904
RightLeg  29.1463 16.6364 9.61158
RightFoot  -8.95815 -0.441073 18.1061
RightToes  0.00048216 0.542163 -0.142577
Spine  23.6439 -7.34023 7.02107
Spine1  12.2003 -10.9393 13.7185
HEad  9.26672 19.9711 2.89875
LeftShoulder1  9.81646 -14.0169 -48.917
LeftArm  -12.2247 15.6217 -26.5037
LeftForeArm  57.5902 -58.3328 -13.0891
LeftHand  -0.25398 0.0180481 5.50724
RightShoulder  4.98535 8.10453 36.9386
RightArm  -1.48814 19.9538 26.7122
RightForeArm  -4.52275 22.9714 5.28018
RightHand  -3.53075 11.5547 -24.3043
LeftUpLeg  7.36481 43.5131 -2.44729
LeftLeg  33.2754 15.9784 11.3751
LeftFoot  -21.7395 -0.141553 -2.9892
LeftToes  1.06241e-005 4.65855e-005 -8.18508e-006
52
root  11.0317 37.845 -1.81168 -179.153 -45.0941 161.456
RightUpLeg  -18.3679 20.4386 -26.6544
RightLeg  27.1801 15.0668 8.05363
RightFoot  -7.57551 -0.626793 17.378
RightToes  0.00048216 0.542163 -0.142577
Spine  22.4562 -7.19712 6.264
Spine1  12.5179 -10.7716 12.7358
HEad  10 20.5016 2.83392
LeftShoulder1  9.70523 -13.9209 -48.6275
LeftArm  -10.7073 14.4577 -27.0298
LeftForeArm  58.6197 -58.6037 -13.1715
LeftHand  -0.25398 0.0180481 5.50724
RightShoulder  4.90424 8.07287 36.372
RightArm  -2.48789 16.0618 25.9705
RightForeArm  -6.42001 19.5663 5.66262
RightHand  -3.37556 11.2027 -23.7387
LeftUpLeg  6.12922 42.4113 -1.89747
LeftLeg  31.927 14.3912 9.84666
LeftFoot  -20.6559 -0.102581 -2.77984
LeftToes  1.06241e-005 4.65855e-005 -8.18508e-006
53
root  11.3673 38.0863 -2.04816 -178.275 -48.2784 161.996
RightUpLeg  -17.1851 19.1252 -25.335
RightLeg  25.4427 13.2132 6.56162
RightFoot  -6.07928 -0.793096 16.2624
RightToes  0.00048216 0.542163 -0.142577
Spine  21.086 -7.00468 5.63878
Spine1  12.8614 -10.5161 11.7534
HEad  10.5137 20.5753 2.90466
LeftShoulder1  9.59882 -13.8149 -48.3867
LeftArm  -9.34522 13.4938 -27.7536
LeftForeArm  57.1508 -57.7759 -12.802
LeftHand  -0.25398 0.0180481 5.50724
RightShoulder  4.92222 8.15594 36.2275
RightArm  -4.01246 11.4474 24.8408
RightForeArm  -4.259 17.0345 6.26834
RightHand  -3.03131 10.5034 -22.3333
LeftUpLeg  5.02106 40.9341 -1.33432
LeftLeg  30.5908 12.8351 8.43726
LeftFoot  -19.4528 -0.0714558 -2.65273
LeftToes  1.06241e-005 4.65855e-005 -8.18508e-006
